<svg version="1.1" xmlns="http://www.w3.org/2000/svg" xmlns:xlink="http://www.w3.org/1999/xlink" x="0px" y="0px"
	 width="512px" height="512px" viewBox="0 0 512 512" enable-background="new 0 0 512 512" xml:space="preserve">
<linearGradient id="SVGID_1_" gradientUnits="userSpaceOnUse" x1="297.6008" y1="-159.074" x2="297.6008" y2="343.6331" gradientTransform="matrix(1 0 0 -1 -41.6001 348.2788)">
	<stop offset="0" style="stop-color:#FEB47B"/>
	<stop offset="1" style="stop-color:#FF7E5F"/>
</linearGradient>
<path fill="url(#SVGID_1_)" d="M260.958,4.646c62.328,0.804,116.148,22.172,160.945,66.064
	c44.996,44.091,75.066,96.267,86.219,158.554c8.92,49.813,2.757,97.632-21.67,142.502c-8.355,15.349-19.301,28.729-31.353,41.334
	c-19.443,20.329-39.243,40.176-63.292,55.225c-43.86,27.446-91.632,41.142-143.32,38.764c-61.794-2.845-115.26-25.95-159.693-69.325
	c-13.566-13.243-27.019-26.606-40.708-39.723C19.647,370.79,5.038,337.044,1.082,298.326c-4.47-43.757,5.249-84.992,23.005-124.637
	C42.24,133.154,67.822,97.708,100.36,67.664c37.909-35.003,82.929-55.448,134.288-61.661C243.374,4.946,252.122,4.754,260.958,4.646
	z"/>
</svg>
